<?xml version="1.0" standalone="no"?>
<!DOCTYPE svg PUBLIC "-//W3C//DTD SVG 20010904//EN"
 "http://www.w3.org/TR/2001/REC-SVG-20010904/DTD/svg10.dtd">
<svg version="1.0" xmlns="http://www.w3.org/2000/svg"
 width="250.000000pt" height="250.000000pt" viewBox="0 0 250.000000 250.000000"
 preserveAspectRatio="xMidYMid meet">
<metadata>
Created by potrace 1.14, written by Peter Selinger 2001-2017
</metadata>
<g transform="translate(0.000000,250.000000) scale(0.100000,-0.100000)"
fill="#000000" stroke="none">
<path d="M836 2160 c-115 -45 -137 -94 -147 -335 -8 -199 -19 -247 -71 -290
-16 -14 -47 -28 -69 -31 l-39 -7 0 -93 0 -93 34 -6 c53 -11 92 -39 115 -88 19
-39 23 -71 30 -234 9 -207 16 -237 72 -290 45 -43 101 -61 209 -69 l90 -7 0
97 0 96 -27 0 c-44 0 -98 18 -118 39 -14 16 -18 50 -25 188 -10 204 -26 259
-97 324 l-46 42 35 31 c82 73 96 116 109 336 9 169 10 176 35 198 14 12 36 22
48 22 13 0 38 3 55 6 l31 7 0 88 0 89 -87 0 c-62 -1 -103 -7 -137 -20z"/>
<path d="M1900 2080 l0 -50 45 0 45 0 0 50 0 50 -45 0 -45 0 0 -50z"/>
<path d="M1320 2000 l0 -90 90 0 90 0 0 90 0 90 -90 0 -90 0 0 -90z"/>
<path d="M1620 1845 l0 -66 63 3 62 3 3 63 3 62 -66 0 -65 0 0 -65z"/>
<path d="M1150 1788 l0 -95 60 -7 c91 -11 96 -21 105 -214 10 -204 27 -266 95
-331 l48 -46 -40 -34 c-71 -59 -88 -114 -100 -313 -10 -184 -18 -211 -64 -228
-14 -6 -43 -10 -65 -10 l-39 0 0 -100 c0 -115 -13 -106 127 -90 118 13 193 59
224 135 6 17 15 109 19 205 4 96 13 195 20 219 16 60 64 106 118 116 l42 7 0
99 0 99 -28 0 c-73 0 -132 69 -139 164 -7 93 -9 96 -53 96 l-40 0 0 65 0 65
40 0 c40 0 40 0 40 38 0 51 -22 123 -50 163 -37 50 -116 81 -227 87 l-93 5 0
-95z m290 -59 l0 -50 -47 3 -48 3 -3 48 -3 47 50 0 51 0 0 -51z"/>
<path d="M1620 1575 l0 -45 50 0 50 0 0 45 0 45 -50 0 -50 0 0 -45z"/>
</g>
</svg>
